<?xml version="1.0" encoding="utf-8"?>
<!-- Generator: Adobe Illustrator 19.2.0, SVG Export Plug-In . SVG Version: 6.00 Build 0)  -->
<svg version="1.1" id="Layer_1" xmlns="http://www.w3.org/2000/svg" xmlns:xlink="http://www.w3.org/1999/xlink" x="0px" y="0px"
	 viewBox="0 0 512 512" style="enable-background:new 0 0 512 512;" xml:space="preserve">
<path d="M484,227H284V28c0-15.5-12.5-28-28-28l0,0c-15.5,0-28,12.5-28,28v199H28c-15.5,0-28,12.5-28,28v1c0,15.5,12.5,28,28,28h200
	v200c0,15.5,12.5,28,28,28l0,0c15.5,0,28-12.5,28-28V284h200c15.5,0,28-12.5,28-28v-1C512,239.5,499.5,227,484,227z"/>
</svg>
